# Blender 5.0.1
# www.blender.org
mtllib banana.mtl
o Cylinder
v 0.000000 0.542710 -0.532610
v 0.000000 0.517797 0.532610
v 0.588808 0.298817 -0.532610
v 0.591735 0.272692 0.532610
v 0.832701 -0.289991 -0.532610
v 0.836840 -0.319043 0.532610
v 0.588808 -0.878799 -0.532610
v 0.591735 -0.910778 0.532610
v 0.000000 -1.122691 -0.532610
v 0.000000 -1.155883 0.532610
v -0.588808 -0.878799 -0.532610
v -0.591735 -0.910778 0.532610
v -0.832701 -0.289991 -0.532610
v -0.836840 -0.319043 0.532610
v -0.588808 0.298817 -0.532610
v -0.591735 0.272692 0.532610
v 0.557713 0.233215 1.780888
v 0.000000 0.460945 1.742090
v 0.788726 -0.316577 1.874555
v 0.557713 -0.866368 1.968222
v 0.000000 -1.094099 2.007020
v -0.557713 -0.866368 1.968222
v -0.788726 -0.316577 1.874555
v -0.557713 0.233215 1.780888
v 0.414424 0.400010 3.555421
v 0.000000 0.565699 3.510541
v 0.586084 -0.000000 3.663770
v 0.414424 -0.400010 3.772119
v 0.000000 -0.565700 3.816999
v -0.414424 -0.400010 3.772119
v -0.586084 -0.000000 3.663770
v -0.414424 0.400010 3.555421
v 0.194946 0.597557 4.379075
v 0.000000 0.675449 4.357785
v 0.275696 0.409509 4.430474
v 0.194946 0.221460 4.481874
v 0.000000 0.143568 4.503164
v -0.194946 0.221460 4.481874
v -0.275696 0.409509 4.430474
v -0.194946 0.597557 4.379075
v 0.000000 0.569519 -1.410476
v 0.529339 0.351186 -1.430610
v 0.748599 -0.175916 -1.479218
v 0.529339 -0.703019 -1.527826
v 0.000000 -0.921352 -1.547960
v -0.529339 -0.703019 -1.527826
v -0.748599 -0.175916 -1.479218
v -0.529339 0.351186 -1.430610
v 0.000000 0.672952 -2.159521
v 0.450271 0.491715 -2.203549
v 0.636779 0.054169 -2.309841
v 0.450271 -0.383376 -2.416132
v 0.000000 -0.564613 -2.460160
v -0.450271 -0.383376 -2.416132
v -0.636779 0.054169 -2.309841
v -0.450271 0.491715 -2.203549
v 0.000000 1.504218 -3.637573
v 0.180515 1.456025 -3.694741
v 0.255286 1.339676 -3.832757
v 0.180515 1.223327 -3.970774
v 0.000000 1.175134 -4.027942
v -0.180515 1.223327 -3.970774
v -0.255286 1.339676 -3.832757
v -0.180515 1.456025 -3.694741
v -0.012743 1.586441 -3.706745
v 0.167771 1.538248 -3.763913
v 0.242543 1.421899 -3.901929
v 0.167771 1.305550 -4.039946
v -0.012743 1.257357 -4.097114
v -0.193258 1.305550 -4.039946
v -0.268030 1.421899 -3.901929
v -0.193258 1.538248 -3.763913
v 0.180520 0.633345 4.489638
v -0.014427 0.711237 4.468348
v 0.261269 0.445297 4.541038
v 0.180520 0.257248 4.592437
v -0.014427 0.179356 4.613727
v -0.209373 0.257248 4.592437
v -0.290122 0.445297 4.541038
v -0.209373 0.633345 4.489638
v -0.295770 0.792666 -2.854968
v -0.418282 0.521258 -2.962804
v -0.295770 0.249850 -3.070640
v 0.000000 0.137430 -3.115307
v 0.295770 0.249850 -3.070640
v 0.418282 0.521258 -2.962804
v 0.295770 0.792666 -2.854968
v 0.000000 0.905086 -2.810300
v -0.691344 -0.158288 2.769162
v -0.488854 0.318975 2.665948
v 0.000000 -0.833241 2.915130
v -0.488854 -0.635552 2.872377
v 0.691344 -0.158288 2.769162
v 0.488854 -0.635552 2.872377
v 0.000000 0.516664 2.623195
v 0.488854 0.318975 2.665948
v -0.187669 0.948666 -3.192233
v -0.187669 0.625451 -3.366920
v 0.187669 0.625451 -3.366920
v 0.187669 0.948666 -3.192233
v -0.265403 0.787058 -3.279576
v 0.000000 0.558511 -3.403099
v 0.265403 0.787058 -3.279576
v 0.000000 1.015606 -3.156054
v -0.152640 1.332711 -3.613233
v -0.152640 1.122092 -3.827505
v 0.152640 1.122092 -3.827505
v 0.152640 1.332711 -3.613233
v -0.215866 1.227402 -3.720369
v 0.000000 1.078471 -3.871882
v 0.215866 1.227402 -3.720369
v 0.000000 1.376332 -3.568855
vn 0.3826 0.9237 0.0216
vn 0.9239 0.3827 0.0068
vn 0.9238 -0.3826 -0.0140
vn 0.3825 -0.9235 -0.0288
vn -0.3825 -0.9235 -0.0288
vn -0.9238 -0.3826 -0.0140
vn 0.9234 -0.3824 0.0338
vn -0.9239 0.3827 0.0068
vn -0.3826 0.9237 0.0216
vn 0.3785 -0.9077 -0.1814
vn -0.9158 0.3999 0.0386
vn -0.9234 -0.3824 0.0338
vn 0.3813 -0.9237 0.0382
vn -0.9214 0.3871 0.0347
vn 0.9214 0.3871 0.0347
vn -0.3813 -0.9237 0.0382
vn -0.3789 0.9245 0.0415
vn 0.3789 0.9245 0.0415
vn 0.3354 -0.6550 0.6771
vn -0.3819 -0.8859 0.2632
vn 0.9206 -0.3518 0.1694
vn 0.3770 0.9247 -0.0519
vn -0.3770 0.9247 -0.0519
vn -0.9206 -0.3518 0.1694
vn 0.3819 -0.8859 0.2632
vn 0.9158 0.3999 0.0386
vn -0.3811 0.8639 -0.3294
vn 0.8961 0.4220 0.1375
vn -0.8961 0.4220 0.1375
vn -0.3354 -0.6550 0.6771
vn 0.8500 -0.2370 0.4705
vn 0.3796 0.9175 -0.1189
vn -0.3796 0.9175 -0.1189
vn -0.8500 -0.2370 0.4705
vn -0.3741 -0.8626 -0.3405
vn -0.9224 0.3845 -0.0371
vn 0.9224 0.3845 -0.0371
vn -0.3785 -0.9077 -0.1814
vn -0.3823 0.9236 0.0284
vn 0.3823 0.9236 0.0284
vn 0.9184 -0.3758 -0.1240
vn -0.9184 -0.3758 -0.1240
vn -0.9009 0.0918 0.4242
vn 0.9124 -0.3496 -0.2131
vn 0.3817 0.9155 0.1269
vn -0.3817 0.9155 0.1269
vn -0.9124 -0.3496 -0.2131
vn 0.3741 -0.8626 -0.3405
vn 0.9205 0.3903 -0.0194
vn -0.9205 0.3903 -0.0194
vn -0.9184 -0.3282 -0.2209
vn -0.3671 -0.7913 -0.4890
vn 0.8968 -0.4260 -0.1197
vn 0.3711 0.4459 0.8145
vn -0.3711 0.4459 0.8145
vn -0.8968 -0.4260 -0.1197
vn 0.3671 -0.7913 -0.4890
vn 0.9009 0.0918 0.4242
vn -0.0000 0.7646 -0.6445
vn 0.3823 -0.5595 -0.7354
vn 0.9184 0.3282 0.2209
vn -0.9183 0.1616 0.3613
vn -0.3823 -0.6288 -0.6771
vn 0.9183 -0.1616 -0.3613
vn 0.3823 0.6288 0.6771
vn -0.3823 0.5595 0.7354
vn -0.0000 0.2637 0.9646
vn -0.9196 -0.3929 0.0072
vn 0.3811 -0.8639 0.3294
vn 0.9196 0.3929 -0.0072
vn -0.9159 0.3313 -0.2267
vn -0.3827 -0.8924 0.2389
vn 0.9159 -0.3313 0.2267
vn 0.3827 0.8924 -0.2389
vn 0.9139 0.4052 -0.0227
vn 0.3342 -0.6400 -0.6919
vn -0.8613 -0.2402 -0.4478
vn -0.3799 0.8710 0.3115
vn 0.3799 0.8710 0.3115
vn 0.8613 -0.2402 -0.4478
vn -0.3342 -0.6400 -0.6919
vn -0.9139 0.4052 -0.0227
vn 0.9186 0.3938 0.0318
vn 0.3811 -0.8885 0.2555
vn -0.9198 -0.3571 0.1623
vn -0.3799 0.9232 -0.0591
vn 0.3799 0.9232 -0.0591
vn 0.9198 -0.3571 0.1623
vn -0.3811 -0.8885 0.2555
vn -0.9186 0.3938 0.0318
vn 0.8931 0.4444 -0.0697
vn 0.3273 -0.5294 -0.7827
vn -0.8404 -0.1545 -0.5194
vn -0.3749 0.8822 0.2849
vn 0.3749 0.8822 0.2849
vn 0.8404 -0.1545 -0.5194
vn -0.3273 -0.5294 -0.7827
vn -0.8931 0.4444 -0.0697
vn 0.9196 0.3249 0.2206
vn 0.3658 -0.6211 -0.6931
vn -0.9120 -0.2386 -0.3336
vn -0.3718 0.7001 0.6097
vn 0.3718 0.7001 0.6097
vn 0.9120 -0.2386 -0.3336
vn -0.3658 -0.6211 -0.6931
vn -0.9196 0.3249 0.2206
vt 1.000000 0.500000
vt 1.000000 1.000000
vt 0.875000 1.000000
vt 0.875000 0.500000
vt 0.750000 1.000000
vt 0.750000 0.500000
vt 0.625000 1.000000
vt 0.625000 0.500000
vt 0.500000 1.000000
vt 0.500000 0.500000
vt 0.375000 1.000000
vt 0.375000 0.500000
vt 0.250000 1.000000
vt 0.250000 0.500000
vt 0.125000 1.000000
vt 0.125000 0.500000
vt 0.000000 1.000000
vt 0.000000 0.500000
vt 0.250000 0.500000
vt 0.125000 0.500000
vt 0.750000 0.490000
vt 0.919706 0.419706
vt 0.990000 0.250000
vt 0.919706 0.080294
vt 0.750000 0.010000
vt 0.580294 0.080294
vt 0.510000 0.250000
vt 0.580294 0.419706
vt 0.419706 0.419706
vt 0.250000 0.490000
vt 0.080294 0.419706
vt 0.010000 0.250000
vt 0.080294 0.080294
vt 0.250000 0.010000
vt 0.419706 0.080294
vt 0.490000 0.250000
vt 0.250000 0.500000
vt 0.000000 0.500000
vt 1.000000 0.500000
vt 0.750000 0.500000
vt 0.875000 0.500000
vt 0.000000 0.500000
s 0
f 1/1/1 2/2/1 4/3/1 3/4/1
f 3/4/2 4/3/2 6/5/2 5/6/2
f 5/6/3 6/5/3 8/7/3 7/8/3
f 7/8/4 8/7/4 10/9/4 9/10/4
f 9/10/5 10/9/5 12/11/5 11/12/5
f 11/12/6 12/11/6 14/13/6 13/14/6
f 8/7/7 6/5/7 19/5/7 20/7/7
f 13/14/8 14/13/8 16/15/8 15/16/8
f 15/16/9 16/15/9 2/17/9 1/18/9
f 7/8/10 9/10/10 45/10/10 44/8/10
f 90/15/11 89/13/11 31/13/11 32/15/11
f 14/13/12 12/11/12 22/11/12 23/13/12
f 10/9/13 8/7/13 20/7/13 21/9/13
f 16/15/14 14/13/14 23/13/14 24/15/14
f 6/5/15 4/3/15 17/3/15 19/5/15
f 12/11/16 10/9/16 21/9/16 22/11/16
f 2/17/17 16/15/17 24/15/17 18/17/17
f 4/3/18 2/2/18 18/2/18 17/3/18
f 29/9/19 28/7/19 36/7/19 37/9/19
f 92/11/20 91/9/20 29/9/20 30/11/20
f 94/7/21 93/5/21 27/5/21 28/7/21
f 96/3/22 95/2/22 26/2/22 25/3/22
f 95/17/23 90/15/23 32/15/23 26/17/23
f 89/13/24 92/11/24 30/11/24 31/13/24
f 91/9/25 94/7/25 28/7/25 29/9/25
f 93/5/26 96/3/26 25/3/26 27/5/26
f 34/17/27 40/15/27 80/15/27 74/17/27
f 27/5/28 25/3/28 33/3/28 35/5/28
f 32/15/29 31/13/29 39/13/29 40/15/29
f 30/11/30 29/9/30 37/9/30 38/11/30
f 28/7/31 27/5/31 35/5/31 36/7/31
f 25/3/32 26/2/32 34/2/32 33/3/32
f 26/17/33 32/15/33 40/15/33 34/17/33
f 31/13/34 30/11/34 38/11/34 39/13/34
f 45/10/35 46/12/35 54/12/35 53/10/35
f 13/14/36 15/16/36 48/16/36 47/14/36
f 3/4/37 5/6/37 43/6/37 42/4/37
f 9/10/38 11/12/38 46/12/38 45/10/38
f 15/16/39 1/18/39 41/18/39 48/16/39
f 1/1/40 3/4/40 42/4/40 41/1/40
f 5/6/41 7/8/41 44/8/41 43/6/41
f 11/12/42 13/14/42 47/14/42 46/12/42
f 109/19/43 105/20/43 64/16/43 63/14/43
f 43/6/44 44/8/44 52/8/44 51/6/44
f 41/1/45 42/4/45 50/4/45 49/1/45
f 48/16/46 41/18/46 49/18/46 56/16/46
f 46/12/47 47/14/47 55/14/47 54/12/47
f 44/8/48 45/10/48 53/10/48 52/8/48
f 42/4/49 43/6/49 51/6/49 50/4/49
f 47/14/50 48/16/50 56/16/50 55/14/50
f 62/12/51 63/14/51 71/14/51 70/12/51
f 110/10/52 106/12/52 62/12/52 61/10/52
f 111/6/53 107/8/53 60/8/53 59/6/53
f 112/1/54 108/4/54 58/4/54 57/1/54
f 105/20/55 112/18/55 57/18/55 64/16/55
f 106/12/56 109/19/56 63/14/56 62/12/56
f 107/8/57 110/10/57 61/10/57 60/8/57
f 108/4/58 111/6/58 59/6/58 58/4/58
f 65/21/59 66/22/59 67/23/59 68/24/59 69/25/59 70/26/59 71/27/59 72/28/59
f 60/8/60 61/10/60 69/10/60 68/8/60
f 58/4/61 59/6/61 67/6/61 66/4/61
f 63/14/62 64/16/62 72/16/62 71/14/62
f 61/10/63 62/12/63 70/12/63 69/10/63
f 59/6/64 60/8/64 68/8/64 67/6/64
f 57/1/65 58/4/65 66/4/65 65/1/65
f 64/16/66 57/18/66 65/18/66 72/16/66
f 73/29/67 74/30/67 80/31/67 79/32/67 78/33/67 77/34/67 76/35/67 75/36/67
f 39/13/68 38/11/68 78/11/68 79/13/68
f 37/9/69 36/7/69 76/7/69 77/9/69
f 35/5/70 33/3/70 73/3/70 75/5/70
f 40/15/71 39/13/71 79/13/71 80/15/71
f 38/11/72 37/9/72 77/9/72 78/11/72
f 36/7/73 35/5/73 75/5/73 76/7/73
f 33/3/74 34/2/74 74/2/74 73/3/74
f 50/4/75 51/6/75 86/6/75 87/4/75
f 52/8/76 53/10/76 84/10/76 85/8/76
f 54/12/77 55/14/77 82/37/77 83/12/77
f 56/16/78 49/18/78 88/38/78 81/16/78
f 49/1/79 50/4/79 87/4/79 88/39/79
f 51/6/80 52/8/80 85/8/80 86/6/80
f 53/10/81 54/12/81 83/12/81 84/10/81
f 55/14/82 56/16/82 81/16/82 82/37/82
f 19/5/83 17/3/83 96/3/83 93/5/83
f 21/9/84 20/7/84 94/7/84 91/9/84
f 23/13/85 22/11/85 92/11/85 89/13/85
f 18/17/86 24/15/86 90/15/86 95/17/86
f 17/3/87 18/2/87 95/2/87 96/3/87
f 20/7/88 19/5/88 93/5/88 94/7/88
f 22/11/89 21/9/89 91/9/89 92/11/89
f 24/15/90 23/13/90 89/13/90 90/15/90
f 87/4/91 86/6/91 103/40/91 100/41/91
f 85/8/92 84/10/92 102/10/92 99/8/92
f 83/12/93 82/37/93 101/37/93 98/12/93
f 81/16/94 88/38/94 104/42/94 97/20/94
f 88/39/95 87/4/95 100/41/95 104/39/95
f 86/6/96 85/8/96 99/8/96 103/40/96
f 84/10/97 83/12/97 98/12/97 102/10/97
f 82/37/98 81/16/98 97/20/98 101/37/98
f 100/41/99 103/40/99 111/6/99 108/4/99
f 99/8/100 102/10/100 110/10/100 107/8/100
f 98/12/101 101/37/101 109/19/101 106/12/101
f 97/20/102 104/42/102 112/18/102 105/20/102
f 104/39/103 100/41/103 108/4/103 112/1/103
f 103/40/104 99/8/104 107/8/104 111/6/104
f 102/10/105 98/12/105 106/12/105 110/10/105
f 101/37/106 97/20/106 105/20/106 109/19/106
